# File created by Blade
# Date/Time:  Mon Nov 18 17:26:10 2013
# Frame Rate: 100.000 fps
#------------------------------------------------------
:FULLY-SPECIFIED
:DEGREES
179
root -41.831559 -3.141144 39.541098 6.405337 -1.564025 19.399142
Spine 23.058151 -1.511067 1.205832
Spine1 8.618075 -0.549227 2.875314
Spine2 -21.572366 -2.970453 -0.593392
NeckDummy -0.152795 0.145836 0.824998 14.211785 -0.615539 -0.236098
Neck 4.069497 -14.828832 42.788690
Head -0.432268 0.040742 0.258463 -5.238653 -5.195864 -2.109602
LeftShoulderDummy -0.196426 0.156105 0.848090 14.211867 -0.785812 -0.017487
LeftShoulder 7.420767 -11.022534 18.445911
LeftArm 17.466576 39.728074 17.854054
LeftForeArm 53.216350
LeftForeArmRoll 17.105360
LeftHand -33.584805 -23.108843 12.109931
LeftHandThumb1 14.126912 4.238004
LeftHandIndex1 -0.451130 41.103299
LeftHandPinky1 1.390889 61.030860
RightShoulderDummy -0.146981 0.161695 0.795084 14.186697 0.613819 0.279504
RightShoulder 7.586760 4.883537 8.536405
RightArm -1.297622 62.941536 36.194877
RightForeArm 100.139655
RightForeArmRoll 27.622552
RightHand -44.860945 -20.848964 8.670246
RightHandThumb1 12.462644 8.684788
RightHandIndex1 8.649942 38.993095
RightHandPinky1 11.779436 63.998556
LeftUpLeg -16.289731 23.959277 -37.689355
LeftLeg 36.338996
LeftFoot -0.175038 -0.682329 -1.051726 -24.050514 24.646459 -0.706796
LeftToeBase -2.271590
RightUpLeg -1.321428 15.425265 -30.829250
RightLeg 54.337947
RightFoot -0.534369 0.791542 0.961472 -18.625954 8.435485 -24.678674
RightToeBase -1.042161
180
root -41.773401 -3.129184 39.551738 6.429369 -1.595297 19.394426
Spine 23.023992 -1.522215 1.234847
Spine1 8.594419 -0.545356 2.923741
Spine2 -21.586431 -2.954276 -0.583692
NeckDummy -0.152649 0.150251 0.827246 14.190439 -0.617537 -0.276347
Neck 3.968221 -14.724104 42.690113
Head -0.427879 0.041497 0.255484 -5.200254 -5.167247 -2.076220
LeftShoulderDummy -0.195795 0.159729 0.850234 14.189893 -0.786492 -0.050318
LeftShoulder 7.357698 -10.901209 18.374909
LeftArm 17.322303 39.580006 18.013991
LeftForeArm 52.830446
LeftForeArmRoll 17.348903
LeftHand -33.669237 -23.069936 12.077464
LeftHandThumb1 13.875590 4.298333
LeftHandIndex1 -0.335832 40.716869
LeftHandPinky1 1.405456 60.825330
RightShoulderDummy -0.146631 0.166466 0.797429 14.166316 0.615807 0.315474
RightShoulder 7.524389 4.777640 8.466542
RightArm -1.309505 62.748528 36.264067
RightForeArm 100.118263
RightForeArmRoll 27.920866
RightHand -44.827774 -20.726402 8.627816
RightHandThumb1 12.423932 8.539846
RightHandIndex1 8.561936 38.767290
RightHandPinky1 11.717572 63.485388
LeftUpLeg -15.928617 24.041601 -37.810993
LeftLeg 36.520257
LeftFoot -0.184666 -0.685032 -1.067996 -23.897435 24.096029 -1.055480
LeftToeBase -2.301341
RightUpLeg -1.395747 15.422786 -30.695472
RightLeg 54.141102
RightFoot -0.537511 0.782493 0.944857 -18.690884 8.611718 -24.572581
RightToeBase -1.019645
181
root -41.703122 -3.116947 39.560100 6.449955 -1.627166 19.389223
Spine 22.980567 -1.547782 1.245953
Spine1 8.577757 -0.545285 2.943366
Spine2 -21.589751 -2.873840 -0.539968
NeckDummy -0.148853 0.153970 0.828141 14.191189 -0.648967 -0.182751
Neck 4.012328 -14.797598 42.658202
Head -0.425256 0.044509 0.254637 -5.198316 -5.116778 -2.092946
LeftShoulderDummy -0.191776 0.164452 0.851388 14.191455 -0.814570 0.021128
LeftShoulder 7.280336 -10.988796 18.297133
LeftArm 17.135241 39.365623 18.120889
LeftForeArm 52.405060
LeftForeArmRoll 17.630742
LeftHand -33.700008 -23.067414 12.153294
LeftHandThumb1 14.418227 3.849326
LeftHandIndex1 -0.361723 40.811249
LeftHandPinky1 1.484633 60.726126
RightShoulderDummy -0.142369 0.168011 0.797562 14.167924 0.646748 0.223464
RightShoulder 7.437067 4.911809 8.367688
RightArm -1.148235 62.606427 36.474275
RightForeArm 100.085771
RightForeArmRoll 28.111381
RightHand -44.816359 -20.658853 8.591089
RightHandThumb1 12.388662 8.519491
RightHandIndex1 8.630354 38.602081
RightHandPinky1 11.541887 63.306131
LeftUpLeg -15.504521 24.119753 -37.992657
LeftLeg 36.797278
LeftFoot -0.191199 -0.695418 -1.087731 -23.716440 23.457906 -1.437394
LeftToeBase -2.304293
RightUpLeg -1.430268 15.452729 -30.561497
RightLeg 53.962716
RightFoot -0.543203 0.786549 0.940149 -18.694637 8.575448 -24.499474
RightToeBase -1.039787
182
root -41.620324 -3.103017 39.566856 6.458091 -1.650635 19.379574
Spine 22.970387 -1.562120 1.263972
Spine1 8.568262 -0.553936 2.958851
Spine2 -21.606231 -2.860203 -0.540114
NeckDummy -0.149278 0.156833 0.830636 14.155243 -0.645394 -0.231886
Neck 3.883098 -14.690507 42.547182
Head -0.419064 0.043220 0.251747 -5.155182 -5.125436 -1.987501
LeftShoulderDummy -0.192461 0.166719 0.853663 14.155408 -0.813767 -0.006708
LeftShoulder 7.204434 -10.896135 18.290523
LeftArm 16.905923 39.172147 18.256048
LeftForeArm 52.077004
LeftForeArmRoll 17.789556
LeftHand -33.590757 -23.100050 12.117854
LeftHandThumb1 14.046931 4.182040
LeftHandIndex1 -0.436659 40.497562
LeftHandPinky1 1.203042 60.543794
RightShoulderDummy -0.142468 0.171542 0.800036 14.132217 0.642768 0.269896
RightShoulder 7.382292 4.798065 8.272410
RightArm -1.095868 62.433177 36.586296
RightForeArm 100.069842
RightForeArmRoll 28.298628
RightHand -44.802187 -20.526570 8.545014
RightHandThumb1 12.274685 8.329942
RightHandIndex1 8.589254 38.319760
RightHandPinky1 11.449254 62.972713
LeftUpLeg -15.084328 24.157891 -38.124722
LeftLeg 37.056691
LeftFoot -0.194874 -0.701162 -1.105261 -23.531334 22.898383 -1.849033
LeftToeBase -2.331321
RightUpLeg -1.549843 15.500313 -30.398258
RightLeg 53.705910
RightFoot -0.533852 0.785136 0.937194 -18.832251 8.766369 -24.345731
RightToeBase -0.997482
